<?xml version="1.0" encoding="utf-8"?>
<!-- Generator: Adobe Illustrator 19.0.0, SVG Export Plug-In . SVG Version: 6.00 Build 0)  -->
<svg version="1.1" id="Capa_1" xmlns="http://www.w3.org/2000/svg" xmlns:xlink="http://www.w3.org/1999/xlink" x="0px" y="0px"
	 viewBox="-298 60 602 482" style="enable-background:new -298 60 602 482;" xml:space="preserve">
<style type="text/css">
	.st0{fill:none;stroke:#000000;stroke-width:4;stroke-miterlimit:10;}
	.st1{fill:#B467B2;stroke:#000000;stroke-width:4;stroke-miterlimit:10;}
	.st2{fill:none;stroke:#B467B2;stroke-width:4;stroke-miterlimit:10;}
</style>
<path id="XMLID_1_" class="st0" d="M-196.2,112c-11.6,2.4-32.1,8.6-45.7,26.4c-24.6,32.2-9.1,79.5-5,92.1
	c13.8,42.2,37.7,50.2,39.3,85c0.9,19.3-5.6,35.6-11.4,46.4"/>
<path id="XMLID_2_" class="st0" d="M-279.1,240.6c16.3-14,36.6-27.9,61.4-38.6c3.6-1.5,7.2-3,10.7-4.3"/>
<path id="XMLID_3_" class="st0" d="M-151.3,175.9c-8.4-1.5-12.6-2.2-13.7-0.7c-2.5,3.5,4.8,18.1,14.5,17.7
	c7.2-0.3,13.7-8.8,12.2-12.7C-139.1,178.1-143.2,177.4-151.3,175.9z"/>
<path id="XMLID_4_" class="st0" d="M-147.8,286.3c-18.5-36.2-23.7-68.7-10-81.4c1.8-1.7,4.2-3.2,7.1-4.3"/>
<path id="XMLID_5_" class="st0" d="M-109.9,168.4c2.8,4.2,6.1,9.5,9.2,16.1c0,0,4.9,10.1,7.9,21.1c4,14.6,5.4,41.9-2.1,75"/>
<path id="XMLID_6_" class="st0" d="M-99.1,184.9c1.4-5,9.7-15.1,25.6-23.3c21.4-11,41-5.4,53.6,9.5c18.9,22.2,22.6,62.5-1.4,93.8"/>
<path id="XMLID_7_" class="st0" d="M82.4,259.6c12.6-51.7,16.2-70,20.1-90.7c0.1-0.3,0.1-0.3,0.1-0.5c0,0,0.1-0.6,0.2-1.1
	c7.2-37.1,24.1-53.1,24.1-53.1c4.6-4.4,14.4-12.2,31.4-15.7"/>
<path id="XMLID_8_" class="st0" d="M91.9,160.6c-18.1-11.9-31.3-10.4-36.4-9.3c-35.1,7.3-59.8,69.5-35.7,100
	c10.7,13.5,30.1,20.8,48.6,18.6c24.6-2.9,37.9-21.3,40-24.3"/>
<path id="XMLID_10_" class="st0" d="M182.9,176.3c1.8,8.9,3.7,24.1,0,42.1c-4.6,22.2-15.3,37.5-21.4,45"/>
<path id="XMLID_11_" class="st0" d="M265.1,95.6c-14.8,2.3-23.7,7.8-28.6,11.4c-35.5,26.6-37.2,94.3-21.4,140
	c4.9,14.3,9.3,19.9,10,33.6c1.4,28.2-14.6,52-28.6,67.9"/>
<path id="XMLID_12_" class="st0" d="M197.9,218.4c2.1-3.4,18.8-29.1,43.6-28.6c3.3,0.1,7.1,0.6,11.4,2.1"/>
<path id="XMLID_13_" class="st0" d="M-188.5,335.6c-0.4,8.4,0.3,23,9.3,36.4c15.2,22.7,47.9,32.5,81.4,23.6"/>
<path id="XMLID_14_" class="st0" d="M-104.2,318.4c2.7,10.4,6.3,25.4,10,43.6c10.2,49.4,15.1,74.6,7.9,95
	c-1.9,5.4-12.9,36.4-42.9,46.4c-16.6,5.6-31.8,2.3-39.3,0"/>
<path id="XMLID_15_" class="st1" d="M-77.8,314.1c-12.2,21-7,49.8,11.4,65.7c24.1,20.8,65.3,14.5,81.4-12.9
	c12.3-20.7,7.5-49.1-10-65C-18.8,280.3-61.5,286.1-77.8,314.1z"/>
<path id="XMLID_16_" class="st0" d="M39.4,294.9c-17.9,24.7-14.9,57.1,4.3,75c16.1,15,42.9,19.1,60,7.1c21.2-14.9,26.6-54,1.4-83.6"
	/>
<path id="XMLID_17_" class="st0" d="M20.1,414.1c-3.9-2.6-18.8-11.8-36.4-7.9c-24.2,5.4-39.7,32.6-36.4,56.4
	c0.5,3.9,4.2,26.7,25,35.7c14.8,6.4,32.6,3.4,45.7-7.9"/>
<path id="XMLID_18_" class="st0" d="M93.7,411.3c-1.7-0.7-28.3-10.9-50,5c-17.5,12.8-28.5,40.1-15,61.4c11.7,18.5,37.5,25.8,59.3,15
	"/>
<path id="XMLID_19_" class="st0" d="M102.2,412.7c-4.3,5.2-10.1,13.8-13.6,25.7c-4.1,14.1-2.6,25.3-1.4,34.3c1.3,9.7,2,15,6.4,20
	c6.4,7.2,15.6,8.3,19.3,8.6"/>
<path id="XMLID_20_" class="st0" d="M112.9,406.3c4.7,3.9,11.7,10.9,17.1,21.4c11,21.2,7.6,41.6,6.4,47.9
	c-2.2,11.8-6.6,20.8-10,26.4"/>
<path id="XMLID_21_" class="st0" d="M128.1,418.4c0.4-5.2,1.8-12.8,7.1-19.3c12.5-15.3,38.7-15.1,52.1-7.1
	c20.5,12.1,27.9,51.8,7.1,93.6"/>
<path id="XMLID_9_" class="st0" d="M185.6,152.1c-8.4-1.5-12.6-2.2-13.7-0.7c-2.5,3.5,4.8,18.1,14.5,17.7
	c7.2-0.3,13.7-8.8,12.2-12.7C197.8,154.3,193.7,153.6,185.6,152.1z"/>
<path class="st2" d="M124.4,199.2c-6.3,4-8.1,11.8-5,17c2.5,4.1,8,6.4,12,5c5.5-1.9,9.3-11.1,5-21"/>
<path class="st2" d="M155.7,213c-4-20.1-18.7-6.6-8.4,3.7c3.6,3.6,8.4,9,3.5,13.2c-6.3,5.3-14.1,1.8-14.1-5.9"/>
</svg>
